<?xml version="1.0" encoding="utf-8"?>
<!-- Generator: Adobe Illustrator 15.0.0, SVG Export Plug-In . SVG Version: 6.00 Build 0)  -->
<!DOCTYPE svg PUBLIC "-//W3C//DTD SVG 1.1//EN" "http://www.w3.org/Graphics/SVG/1.1/DTD/svg11.dtd">
<svg version="1.1" id="Layer_1" xmlns="http://www.w3.org/2000/svg" xmlns:xlink="http://www.w3.org/1999/xlink" x="0px" y="0px"
	 width="237px" height="43px" viewBox="0 0 237 43" enable-background="new 0 0 237 43" xml:space="preserve">
<g>
	<path d="M0,37.139v-1.161c1.843,0,3.032-0.396,3.567-1.189c0.534-0.793,0.802-2.553,0.802-5.282V12.029
		c0-2.766-0.258-4.536-0.774-5.31C3.079,5.945,1.881,5.558,0,5.558V4.396L8.296,3v26.504c0,2.767,0.258,4.538,0.774,5.313
		c0.516,0.773,1.715,1.161,3.595,1.161v1.161H0z"/>
	<path d="M26.105,38.081c-3.061,0-5.679-0.993-7.854-2.979c-2.176-1.986-3.263-4.377-3.263-7.171c0-2.758,1.088-5.13,3.263-7.116
		s4.793-2.979,7.854-2.979c3.098,0,5.733,0.975,7.909,2.924c2.176,1.95,3.263,4.339,3.263,7.17c0,2.794-1.088,5.185-3.263,7.171
		C31.839,37.089,29.203,38.081,26.105,38.081z M26.105,19.938c-2.176,0-3.826,0.736-4.95,2.205c-1.125,1.47-1.687,3.398-1.687,5.788
		c0,2.315,0.562,4.226,1.687,5.732c1.125,1.508,2.774,2.26,4.95,2.26c2.176,0,3.835-0.752,4.978-2.26
		c1.143-1.506,1.714-3.417,1.714-5.732s-0.562-4.225-1.687-5.732C29.987,20.692,28.318,19.938,26.105,19.938z"/>
	<path d="M55.863,6.055c2.691,0,4.839,0.769,6.443,2.305c1.604,1.537,2.406,3.62,2.406,6.249v4.167h4.812v1.936h-4.812v11.132
		c0,2.683,0.83,4.023,2.489,4.023c1.106,0,2.304-0.646,3.596-1.937l0.94,0.94c-0.811,0.959-1.742,1.734-2.793,2.323
		c-1.051,0.589-2.057,0.886-3.014,0.886c-1.586,0-2.84-0.516-3.761-1.545c-0.922-1.029-1.383-2.591-1.383-4.686V20.713h-2.876V19.38
		c1.512-0.334,2.627-1.093,3.346-2.277c0.719-1.185,1.079-2.499,1.079-3.943c0-1.518-0.562-2.859-1.687-4.027
		c-1.125-1.167-2.738-1.75-4.839-1.75c-1.734,0-3.3,0.572-4.702,1.714c-1.401,1.143-2.102,2.674-2.102,4.591
		c0,1.364,0.423,2.84,1.272,4.425c1.217,0.553,2.01,1.07,2.378,1.548c0.368,0.48,0.553,1.033,0.553,1.66
		c0,0.516-0.193,0.931-0.581,1.245c-0.387,0.314-0.857,0.47-1.41,0.47c-0.517,0-1.023-0.203-1.521-0.608
		c-0.498-0.406-0.932-0.977-1.3-1.715l-0.608-1.438H47.4c-0.885,0-1.568,0.258-2.046,0.774c-0.48,0.518-0.719,1.143-0.719,1.881
		c0,0.59,0.249,1.125,0.747,1.604c0.498,0.48,1.373,1.071,2.627,1.771l2.655,1.438c2.544,1.438,3.816,3.208,3.816,5.31
		c0,1.771-0.636,3.217-1.908,4.342c-1.272,1.124-2.831,1.688-4.673,1.688c-0.812,0-1.669-0.194-2.572-0.581
		c-0.904-0.388-1.797-0.783-2.682-1.19c-0.443,0-0.664,0.592-0.664,1.771h-1.106v-8.077h1.106c0,1.438,0.553,2.832,1.66,4.176
		c1.106,1.347,2.58,2.02,4.424,2.02c0.885,0,1.622-0.277,2.212-0.83c0.589-0.553,0.885-1.217,0.885-1.991
		c0-0.664-0.268-1.263-0.802-1.797c-0.535-0.534-1.3-1.059-2.296-1.577l-3.042-1.659c-1.291-0.664-2.231-1.493-2.821-2.489
		c-0.591-0.996-0.885-2.01-0.885-3.042c0-1.474,0.562-2.683,1.687-3.623c1.124-0.94,2.442-1.41,3.955-1.41h0.332
		c-0.258-1.07-0.387-2.138-0.387-3.208c0-2.655,0.903-4.737,2.71-6.25C51.419,6.811,53.502,6.055,55.863,6.055z"/>
	<path d="M89.27,9.484h3.318v12.169h12.168v3.318H92.588v12.168H89.27V24.971H77.102v-3.318H89.27V9.484z"/>
	<path d="M119.579,29.53c0,2.756,0.257,4.52,0.774,5.291c0.516,0.771,1.714,1.156,3.595,1.156v1.161h-12.666v-1.161
		c1.844,0,3.033-0.395,3.567-1.185c0.534-0.79,0.802-2.544,0.802-5.263v-8.817h-4.535v-1.936h4.535v-5.33
		c0-3.515,0.876-6.132,2.628-7.853c1.75-1.721,3.898-2.581,6.444-2.581c1.695,0,3.042,0.434,4.039,1.3
		c0.995,0.867,1.492,1.797,1.492,2.793c0,1.328-0.608,1.991-1.825,1.991c-0.812,0-1.493-0.71-2.046-2.129
		c-0.554-1.419-1.438-2.13-2.655-2.13c-1.438,0-2.488,0.658-3.153,1.971c-0.663,1.314-0.995,3.527-0.995,6.636v5.331h5.531v1.936
		h-5.531V29.53L119.579,29.53z"/>
	<path d="M139.932,38.081c-3.061,0-5.679-0.993-7.854-2.979c-2.176-1.986-3.263-4.377-3.263-7.171c0-2.758,1.087-5.13,3.263-7.116
		c2.175-1.986,4.793-2.979,7.854-2.979c3.097,0,5.733,0.975,7.91,2.924c2.176,1.95,3.263,4.339,3.263,7.17
		c0,2.794-1.087,5.185-3.263,7.171C145.665,37.089,143.029,38.081,139.932,38.081z M139.932,19.938c-2.176,0-3.826,0.736-4.95,2.205
		c-1.125,1.47-1.686,3.398-1.686,5.788c0,2.315,0.561,4.226,1.686,5.732c1.125,1.508,2.774,2.26,4.95,2.26
		c2.175,0,3.834-0.752,4.977-2.26c1.143-1.506,1.714-3.417,1.714-5.732s-0.562-4.225-1.687-5.732
		C143.812,20.692,142.145,19.938,139.932,19.938z"/>
	<path d="M171.582,38.081c-0.111-0.259-0.263-0.795-0.449-1.604c-0.187-0.812-0.336-1.457-0.448-1.937
		c-0.845,0.885-1.91,1.696-3.196,2.434c-1.286,0.736-2.626,1.107-4.021,1.107c-2.388,0-4.123-0.753-5.207-2.255
		c-1.084-1.502-1.625-3.5-1.625-5.993V26.37c0-2.749-0.258-4.508-0.774-5.278c-0.517-0.769-1.713-1.154-3.595-1.154v-1.162h8.296
		v10.75c0,1.912,0.329,3.373,0.989,4.383c0.66,1.011,1.724,1.516,3.191,1.516c1.247,0,2.549-0.521,3.905-1.566
		c1.357-1.043,2.035-2.333,2.035-3.872v-3.624c0-2.746-0.256-4.503-0.765-5.271c-0.511-0.769-1.713-1.154-3.604-1.154v-1.162h8.297
		v10.241c0,2.738,0.257,4.491,0.774,5.258c0.516,0.767,1.732,1.149,3.65,1.149v1.211L171.582,38.081z"/>
	<path d="M198.173,17.836c2.397,0,4.194,0.746,5.395,2.233c1.197,1.489,1.797,3.484,1.797,5.983v3.474
		c0,2.757,0.257,4.521,0.774,5.294c0.517,0.772,1.714,1.157,3.595,1.157v1.161h-12.666v-1.161c1.808,0,2.987-0.385,3.54-1.157
		c0.553-0.77,0.83-2.534,0.83-5.29v-3.197c0-1.874-0.359-3.325-1.079-4.354c-0.72-1.028-1.89-1.543-3.512-1.543
		c-1.585,0-3.041,0.551-4.369,1.652c-1.328,1.104-1.991,2.389-1.991,3.858v3.583c0,2.865,0.212,4.657,0.637,5.374
		c0.423,0.717,1.502,1.074,3.234,1.074v1.161H182.19v-1.161c1.844,0,3.032-0.394,3.568-1.182c0.534-0.787,0.802-2.535,0.802-5.245
		v-2.745c0-2.747-0.268-4.495-0.802-5.246c-0.535-0.75-1.725-1.126-3.568-1.126v-1.187l7.356-1.413
		c0.146,0.291,0.332,0.983,0.554,2.074c0.221,1.091,0.35,1.708,0.387,1.854c0.922-1.163,2-2.109,3.236-2.836
		C194.956,18.201,196.439,17.836,198.173,17.836z"/>
	<path d="M228.704,12.029c0-2.766-0.258-4.536-0.774-5.31c-0.518-0.774-1.714-1.161-3.596-1.161V4.396L232.629,3v26.062
		c0,2.767,0.259,4.538,0.774,5.312c0.517,0.774,1.715,1.162,3.597,1.162v1.162l-7.356,1.383c-0.117-0.223-0.274-0.73-0.47-1.521
		c-0.196-0.793-0.353-1.411-0.471-1.854c-0.845,1.07-1.81,1.9-2.895,2.489c-1.083,0.591-2.379,0.886-3.885,0.886
		c-2.646,0-4.907-0.993-6.781-2.979c-1.874-1.986-2.812-4.377-2.812-7.171c0-2.796,0.949-5.176,2.849-7.144
		c1.899-1.967,4.157-2.951,6.776-2.951c2.728,0,4.977,1.071,6.747,3.208V12.029z M228.704,24.363
		c-0.517-1.311-1.265-2.356-2.24-3.14c-0.977-0.782-2.093-1.175-3.346-1.175c-2.064,0-3.633,0.726-4.701,2.177
		c-1.07,1.452-1.604,3.353-1.604,5.705c0,2.352,0.526,4.263,1.576,5.732c1.052,1.471,2.627,2.205,4.729,2.205
		c1.217,0,2.322-0.396,3.318-1.189c0.996-0.792,1.751-1.853,2.268-3.181V24.363z"/>
</g>
</svg>
